<svg width="48" height="48" viewBox="0 0 48 48" fill="none" xmlns="http://www.w3.org/2000/svg">
<path d="M40.9391 12.3988V8.17819C40.9391 7.01059 39.9891 6.06055 38.8219 6.06055H9.17703C8.00943 6.06055 7.05981 7.01059 7.05981 8.17819V12.413C7.05981 12.4177 7.06107 12.4219 7.06107 12.4269V37.8222C7.06107 38.9864 8.00691 39.9394 9.17829 39.9394H38.8227C39.8677 39.9394 40.7715 39.1557 40.9198 38.1254C40.9685 37.7374 40.7006 37.3774 40.3196 37.3279C40.2906 37.3237 40.2621 37.3249 40.2335 37.3241C39.8849 37.3169 39.5678 37.5752 39.522 37.9276C39.4725 38.2666 39.1692 38.5278 38.8232 38.5278H9.17829C8.78979 38.5278 8.47269 38.2103 8.47269 37.8222V13.1186H12.7063C13.0961 13.1186 13.4123 12.8028 13.4123 12.4126C13.4123 12.4126 13.4119 12.4126 13.4119 12.4122C13.4119 12.0224 13.0961 11.7066 12.7063 11.7066H9.17703L10.2375 10.2941H13.7664L14.8256 11.7066L15.3548 12.4122L15.6719 12.8347C15.8059 13.0111 16.018 13.1174 16.2368 13.1174H39.5288V13.1182V32.3798C39.5288 32.7675 39.8459 33.085 40.2335 33.0854H40.2348C40.6233 33.0854 40.9404 32.7679 40.9404 32.3798C40.9404 32.3727 40.9404 32.3727 40.9404 32.3651V12.4122C40.9404 12.4076 40.9391 12.4034 40.9391 12.3988ZM14.1192 8.88295H9.88431C9.66549 8.88295 9.45339 8.98837 9.31941 9.16519L8.47101 10.2962V8.17819C8.47101 7.78885 8.78769 7.47259 9.17661 7.47259H38.8219C39.2112 7.47259 39.5275 7.78885 39.5275 8.17819V11.7066H16.5896L14.6841 9.16519C14.5501 8.98837 14.338 8.88295 14.1192 8.88295ZM40.9404 35.2035C40.9404 35.5916 40.6233 35.9091 40.2348 35.9091C40.2344 35.9091 40.2339 35.9091 40.2335 35.9091C39.8463 35.9083 39.5288 35.5912 39.5288 35.2035C39.5288 34.8083 39.8459 34.4983 40.2335 34.4979C40.2339 34.4979 40.2344 34.4975 40.2348 34.4975C40.6233 34.4975 40.9404 34.8079 40.9404 35.2035ZM36.7055 9.58897C36.7055 9.20089 37.0163 8.88295 37.4111 8.88295C37.8 8.88295 38.1171 9.20089 38.1171 9.58897C38.1171 9.97705 37.8 10.295 37.4111 10.295C37.0163 10.295 36.7055 9.97705 36.7055 9.58897ZM33.8823 9.58897C33.8823 9.20089 34.1998 8.88295 34.5879 8.88295C34.9768 8.88295 35.2939 9.20089 35.2939 9.58897C35.2939 9.97705 34.9768 10.295 34.5879 10.295C34.1998 10.295 33.8823 9.97705 33.8823 9.58897ZM31.059 9.58897C31.059 9.20089 31.3766 8.88295 31.7646 8.88295C32.1536 8.88295 32.4707 9.20089 32.4707 9.58897C32.4707 9.97705 32.1536 10.295 31.7646 10.295C31.3766 10.295 31.059 9.97705 31.059 9.58897ZM37.7912 24.1764C38.0583 24.0151 38.1881 23.6968 38.1087 23.3939C37.9206 22.6749 37.275 21.4577 36.0507 21.4577L34.8554 21.4556C34.9541 21.2242 35.0432 20.9735 35.1179 20.7114C35.2015 20.4182 35.1011 20.0936 34.8483 19.9226C34.5954 19.7517 34.2754 19.753 34.0343 19.9399C34.0289 19.9428 33.5496 20.2326 32.3249 20.0537C32.1275 20.0243 31.9381 20.0239 31.7562 20.0478L31.7567 19.1465L33.5732 15.5555C33.6832 15.3371 33.6731 15.0763 33.5442 14.8675C33.4161 14.6588 33.1884 14.5311 32.9432 14.5311L29.7171 14.5298C29.7163 14.5298 29.7159 14.5298 29.715 14.5298C27.8284 14.5298 26.1072 15.4354 25.0539 16.9381C24.9779 16.928 24.9018 16.9171 24.8262 16.9083C24.4382 16.8726 24.0854 17.1481 24.0434 17.5295C24.0354 17.6021 24.0421 17.6719 24.0555 17.7403C24.0917 17.926 24.2004 18.0864 24.3542 18.1914C24.4453 18.2531 24.5495 18.2981 24.6645 18.3128C24.7956 18.3279 24.927 18.3451 25.0585 18.3632C25.5503 18.4308 26.0442 18.5203 26.5344 18.637L27.8263 18.9411V18.9768V18.9827C27.8259 18.9898 27.8242 18.9961 27.8242 19.0028V19.682L27.8229 23.3406L27.82 27.0022L27.8192 27.7078V27.7422L26.5272 28.0454C26.0367 28.1601 25.5444 28.25 25.0539 28.318C24.8044 28.3525 24.5553 28.3819 24.3067 28.4041C23.8703 28.4428 23.436 28.4625 23.0055 28.4625C20.2953 28.4625 17.7257 27.7069 15.3687 26.2243V24.4288V20.451C15.3691 20.451 15.3695 20.4506 15.3699 20.4502C15.7009 20.2389 16.0323 20.0478 16.3498 19.8794C16.6304 19.7303 16.7681 19.4191 16.7135 19.1255C16.7009 19.0574 16.6812 18.9898 16.6463 18.926C16.4699 18.5946 16.0251 18.4531 15.6933 18.6295C15.2154 18.8894 14.7374 19.1708 14.2805 19.4728C14.2784 19.4741 14.2763 19.4745 14.2742 19.4762C13.2817 20.1343 12.3464 20.8954 11.4942 21.7383L10.385 22.8349C10.2506 22.9672 10.1754 23.1478 10.1754 23.3368C10.1754 23.525 10.2506 23.7056 10.3845 23.8387L11.4929 24.9358C12.3455 25.7795 13.2804 26.541 14.2721 27.1987C14.2784 27.2033 14.2855 27.2063 14.2922 27.2105C16.9622 28.9812 19.8925 29.8741 22.9984 29.8741H23.0051C23.6817 29.8741 24.3638 29.8288 25.048 29.7427C26.1005 31.2475 27.8234 32.1556 29.7121 32.1564L32.9373 32.1572C33.1826 32.1572 33.4102 32.0304 33.5383 31.8217C33.6672 31.6125 33.6773 31.3521 33.5673 31.1329L31.7533 27.541L31.7537 26.675C31.9767 26.6914 32.2094 26.6641 32.4438 26.5864C33.3917 26.2714 33.9272 26.6897 33.9659 26.722C34.0982 26.8405 34.267 26.9018 34.4367 26.9018C34.5644 26.9018 34.6916 26.8673 34.8054 26.7976C35.0759 26.6321 35.2028 26.3066 35.1158 26.0021C35.0612 25.8119 35.0016 25.63 34.9361 25.4582C35.3884 25.3768 35.8748 25.1693 36.22 24.6863C36.5976 24.1575 36.8853 24.058 36.95 24.0928C37.1805 24.3045 37.5233 24.3377 37.7912 24.1764ZM34.0163 24.0756C33.8205 24.0584 33.4136 24.0227 33.1767 24.4024C33.0511 24.6027 33.0368 24.8488 33.1275 25.0584C33.1254 25.0584 33.1233 25.0584 33.1212 25.0584C32.7802 25.0584 32.4039 25.1122 31.9994 25.2466C31.8554 25.2949 31.8167 25.2642 31.7932 25.2474C31.7806 25.2382 31.7676 25.2268 31.755 25.2142L31.7562 21.535C31.7583 21.5333 31.7609 21.53 31.7625 21.5283C31.8134 21.4842 31.8822 21.4422 32.012 21.4422C32.0448 21.4422 32.0805 21.4451 32.1212 21.4506C32.5341 21.5111 32.8944 21.5312 33.2044 21.5224C33.0368 21.7526 33.0234 22.0625 33.1733 22.3074C33.4871 22.8173 34.8285 22.8677 34.8416 22.8677L36.0499 22.8694C36.0793 22.8694 36.1087 22.8744 36.1368 22.8824C35.7614 23.0722 35.4048 23.4007 35.0721 23.866C34.8689 24.1504 34.2716 24.097 34.0163 24.0756ZM29.7129 30.7452C28.5323 30.7448 27.4403 30.2727 26.6499 29.4663C26.7175 29.4516 26.7847 29.4382 26.8523 29.4226L28.6877 28.985C28.9742 28.9228 29.1774 28.6956 29.2215 28.415L30.6138 28.4155L31.7903 30.746L29.7129 30.7452ZM29.7155 15.9415H29.7176L31.7957 15.9423L30.618 18.272L29.2287 18.2716C29.1842 17.9902 28.9763 17.7613 28.6949 17.6992L26.8599 17.2615C26.7918 17.246 26.7234 17.2321 26.6549 17.217C27.4449 16.4119 28.5361 15.9415 29.7155 15.9415ZM30.3425 25.6208L30.3421 26.9963L29.2333 26.9845L29.2346 23.3402L29.2358 19.7021H29.2371L30.3459 19.6904L30.345 21.1037L30.3425 25.6208ZM12.4866 22.7429C12.9516 22.2826 13.4434 21.8496 13.9566 21.4464V24.3041L13.9562 25.231C13.443 24.8278 12.9512 24.3944 12.4858 23.9332L11.8844 23.3377L12.4866 22.7429ZM16.6039 23.7056C16.6039 24.0958 16.9197 24.4112 17.3095 24.4112C17.6993 24.4112 18.0155 24.0958 18.0155 23.7056C18.0155 22.538 18.9656 21.5879 20.1327 21.5879H20.8388H21.5444C22.712 21.5879 23.662 22.538 23.662 23.7056C23.662 24.0958 23.9778 24.4112 24.368 24.4112C24.7582 24.4112 25.0736 24.0958 25.0736 23.7056C25.0736 22.215 24.1429 20.9399 22.8333 20.4237C23.1311 19.9571 23.3088 19.385 23.3088 18.7647C23.3088 18.4644 23.2668 18.175 23.1903 17.9037C22.8707 16.7668 21.9379 15.9415 20.8383 15.9415C19.4763 15.9415 18.3679 17.2078 18.3679 18.7647C18.3679 18.7811 18.3696 18.797 18.37 18.8134C18.3788 19.4149 18.5535 19.9697 18.8433 20.4233C17.5346 20.9399 16.6039 22.215 16.6039 23.7056ZM19.7951 18.5446C19.8774 17.8798 20.3213 17.3531 20.8388 17.3531C21.2533 17.3531 21.6204 17.6916 21.7926 18.1675C21.8589 18.3502 21.8972 18.5526 21.8972 18.7647C21.8972 19.5299 21.4125 20.1763 20.8383 20.1763C20.2646 20.1763 19.7795 19.5295 19.7795 18.7647C19.7804 18.6899 19.7858 18.6164 19.7951 18.5446ZM9.89859 30.0581C9.89859 29.6679 10.2144 29.3521 10.6046 29.3521H14.1335C14.5236 29.3521 14.8395 29.6679 14.8395 30.0581C14.8395 30.4483 14.5236 30.7637 14.1335 30.7637H10.6046C10.2144 30.7637 9.89859 30.4483 9.89859 30.0581ZM19.7804 32.8813C19.7804 33.2715 19.4641 33.5873 19.0743 33.5873H10.6042C10.2144 33.5873 9.89817 33.2715 9.89817 32.8813C9.89817 32.4911 10.214 32.1753 10.6042 32.1753H19.0739C19.4641 32.1753 19.7804 32.4911 19.7804 32.8813ZM19.7804 35.7046C19.7804 36.0926 19.4624 36.4106 19.0743 36.4106C18.6863 36.4106 18.3687 36.0926 18.3687 35.7046C18.3687 35.3165 18.6863 34.999 19.0743 34.999C19.4624 34.999 19.7804 35.3165 19.7804 35.7046ZM16.2511 34.999C16.6392 34.999 16.9567 35.3165 16.9567 35.7046C16.9567 36.0926 16.6392 36.4106 16.2511 36.4106H10.6042C10.2157 36.4106 9.89817 36.0926 9.89817 35.7046C9.89817 35.3165 10.2157 34.999 10.6042 34.999H16.2511ZM36.7202 34.999C37.11 34.999 37.4258 35.3144 37.4258 35.7046C37.4258 36.0947 37.11 36.4106 36.7202 36.4106H24.0152C23.6255 36.4106 23.3092 36.0947 23.3092 35.7046C23.3092 35.3144 23.625 34.999 24.0152 34.999H36.7202Z" fill="white"/>
</svg>
