<svg width="40" height="36" viewBox="0 0 40 36" fill="none" xmlns="http://www.w3.org/2000/svg">
<path d="M16.3846 28.349C16.7636 28.7582 17.3078 28.9431 17.7311 28.9431C18.1544 28.9431 18.7049 28.7547 19.0769 28.3469L27.3632 19.252C27.6684 18.9159 27.8364 18.4799 27.8364 18.0236C27.8364 17.5673 27.6691 17.1405 27.3625 16.7988L23.8434 12.9337C23.4967 12.5547 23.0059 12.3381 22.4969 12.3381H12.9695C12.4605 12.3381 11.9697 12.5554 11.6224 12.9344L8.1004 16.7995C7.79524 17.1356 7.6272 17.5708 7.6272 18.0243C7.6272 18.4778 7.79595 18.9215 8.1011 19.2527L16.3853 28.3497H16.3846V28.349ZM17.7297 28.1247L14.5009 18.3878H20.9613L17.729 28.1247H17.7297ZM18.6142 27.7731L21.7298 18.3878H27.044C26.9006 18.797 27.1818 18.3196 18.6142 27.7731ZM22.4976 13.0666C22.8027 13.0666 23.0981 13.1974 23.3062 13.4245C26.9413 17.4653 26.9027 17.2684 27.0426 17.6594H21.7298L20.2054 13.0666H22.4976ZM19.4376 13.0666L20.962 17.6594H14.5017L16.026 13.0666H19.4376ZM12.1602 13.4259C12.3698 13.1974 12.6644 13.0666 12.9702 13.0666H15.2589L13.7345 17.6594H8.42103C8.55743 17.2755 8.48782 17.5033 12.1609 13.4259H12.1602ZM13.7338 18.3878L16.8466 27.7738C8.22907 18.2634 8.55814 18.7907 8.41892 18.3878H13.7345H13.7338Z" fill="white" stroke="white" stroke-width="0.2" stroke-miterlimit="10"/>
<path d="M34.8262 15.4002C35.0371 15.4143 35.2157 15.2477 35.2157 15.0367C35.2157 10.2597 35.2157 4.97992 35.2164 2.79953C35.2164 1.39398 34.0731 0.25 32.6669 0.25H2.80164C1.39609 0.25 0.252109 1.39328 0.252109 2.79883C0.252109 8.29516 0.250703 27.2268 0.25 32.6648C0.25 34.0703 1.39398 35.2143 2.79953 35.2143H32.6648C34.0703 35.2143 35.2143 34.0703 35.2143 32.6648C35.2143 30.3965 35.2143 24.7968 35.215 19.6823C35.215 19.4924 35.0695 19.3349 34.8803 19.3195C34.668 19.3019 34.4859 19.4692 34.4859 19.683V32.6648C34.4859 33.6702 33.6702 34.4859 32.6648 34.4859H2.79953C1.79406 34.4859 0.978438 33.6702 0.978438 32.6648V7.50203H34.4859V15.036C34.4859 15.228 34.6342 15.3869 34.8262 15.4002ZM34.488 6.77289H0.980547V2.79953C0.980547 1.79547 1.79758 0.978438 2.80164 0.978438H32.6669C33.6709 0.978438 34.488 1.79547 34.488 2.79953V6.77289Z" fill="white" stroke="white" stroke-width="0.5" stroke-miterlimit="10"/>
<path d="M31.8415 2.68567H20.0803C19.4243 2.68567 18.8899 3.21934 18.8899 3.87606C18.8899 4.53278 19.4236 5.06645 20.0803 5.06645H31.8415C32.4975 5.06645 33.0318 4.53278 33.0318 3.87606C33.0318 3.21934 32.4982 2.68567 31.8415 2.68567ZM31.8415 4.33731H20.0803C19.8258 4.33731 19.6183 4.13059 19.6183 3.87536C19.6183 3.62012 19.8258 3.4134 20.0803 3.4134H31.8415C32.096 3.4134 32.3034 3.62012 32.3034 3.87536C32.3034 4.13059 32.096 4.33731 31.8415 4.33731Z" fill="white" stroke="white" stroke-width="0.2" stroke-miterlimit="10"/>
<path d="M3.62789 2.68567C2.97188 2.68567 2.4375 3.21934 2.4375 3.87606C2.4375 4.53278 2.97117 5.06645 3.62789 5.06645C4.28461 5.06645 4.81758 4.53278 4.81758 3.87606C4.81758 3.21934 4.28391 2.68567 3.62789 2.68567ZM3.62789 4.33731C3.36914 4.33731 3.16594 4.13481 3.16594 3.87536C3.16594 3.6159 3.37336 3.4134 3.62789 3.4134C3.88242 3.4134 4.08914 3.62012 4.08914 3.87536C4.08914 4.13059 3.88242 4.33731 3.62789 4.33731Z" fill="white" stroke="white" stroke-width="0.2" stroke-miterlimit="10"/>
<path d="M6.93111 2.68567C6.2751 2.68567 5.74072 3.21934 5.74072 3.87606C5.74072 4.53278 6.27439 5.06645 6.93111 5.06645C7.58783 5.06645 8.1208 4.53278 8.1208 3.87606C8.1208 3.21934 7.58713 2.68567 6.93111 2.68567ZM6.93111 4.33731C6.67236 4.33731 6.46916 4.13481 6.46916 3.87536C6.46916 3.6159 6.67658 3.4134 6.93111 3.4134C7.18564 3.4134 7.39236 3.62012 7.39236 3.87536C7.39236 4.13059 7.18564 4.33731 6.93111 4.33731Z" fill="white" stroke="white" stroke-width="0.2" stroke-miterlimit="10"/>
<path d="M10.2344 2.68567C9.57835 2.68567 9.04468 3.21934 9.04468 3.87606C9.04468 4.53278 9.57835 5.06645 10.2344 5.06645C10.8904 5.06645 11.4248 4.53278 11.4248 3.87606C11.4248 3.21934 10.8911 2.68567 10.2344 2.68567ZM10.2344 4.33731C9.97562 4.33731 9.77312 4.13481 9.77312 3.87536C9.77312 3.6159 9.97983 3.4134 10.2344 3.4134C10.4889 3.4134 10.6963 3.62012 10.6963 3.87536C10.6963 4.13059 10.4889 4.33731 10.2344 4.33731Z" fill="white" stroke="white" stroke-width="0.2" stroke-miterlimit="10"/>
<g filter="url(#filter0_d_96_6982)">
<path d="M34.9124 18.2039C35.3266 18.2039 35.6624 17.8681 35.6624 17.4539C35.6624 17.0396 35.3266 16.7039 34.9124 16.7039C34.4981 16.7039 34.1624 17.0396 34.1624 17.4539C34.1624 17.8681 34.4981 18.2039 34.9124 18.2039Z" fill="white"/>
</g>
<defs>
<filter id="filter0_d_96_6982" x="30.1624" y="16.7039" width="9.5" height="9.5" filterUnits="userSpaceOnUse" color-interpolation-filters="sRGB">
<feFlood flood-opacity="0" result="BackgroundImageFix"/>
<feColorMatrix in="SourceAlpha" type="matrix" values="0 0 0 0 0 0 0 0 0 0 0 0 0 0 0 0 0 0 127 0" result="hardAlpha"/>
<feOffset dy="4"/>
<feGaussianBlur stdDeviation="2"/>
<feComposite in2="hardAlpha" operator="out"/>
<feColorMatrix type="matrix" values="0 0 0 0 0 0 0 0 0 0 0 0 0 0 0 0 0 0 0.25 0"/>
<feBlend mode="normal" in2="BackgroundImageFix" result="effect1_dropShadow_96_6982"/>
<feBlend mode="normal" in="SourceGraphic" in2="effect1_dropShadow_96_6982" result="shape"/>
</filter>
</defs>
</svg>
