<svg width="50" height="50" viewBox="0 0 50 50" fill="none" xmlns="http://www.w3.org/2000/svg">
<path d="M22.9759 34.5666C22.9759 34.1094 23.3463 33.7389 23.8035 33.7389H25.4592C25.9164 33.7389 26.2874 34.1094 26.2874 34.5666C26.2874 35.0237 25.9169 35.3947 25.4592 35.3947H23.8035C23.3468 35.3942 22.9759 35.0237 22.9759 34.5666ZM43.6734 12.6848C43.2177 12.6848 42.8453 13.0577 42.8453 13.5129C42.8453 13.9681 43.2177 14.341 43.6734 14.341C44.1286 14.341 44.501 13.9681 44.501 13.5129C44.501 13.0577 44.1286 12.6848 43.6734 12.6848ZM44.501 16.8244V31.2546V35.3942C44.501 37.2199 43.0152 38.7057 41.1895 38.7057H28.7712V40.3614H30.427C30.8841 40.3614 31.2546 40.7319 31.2546 41.1895C31.2546 41.6467 30.8841 42.0172 30.427 42.0172H27.9431H21.3201H18.8363C18.3791 42.0172 18.0082 41.6467 18.0082 41.1895C18.0082 40.7324 18.3791 40.3614 18.8363 40.3614H20.492V38.7062H8.0737C6.24799 38.7062 4.76172 37.2204 4.76172 35.3947V31.2551V10.5576C4.76172 8.72794 6.25194 7.24609 8.0737 7.24609H41.1895C42.8285 7.24609 44.236 8.47127 44.468 10.0856C44.501 10.3093 44.4429 10.5246 44.3109 10.6985C44.1783 10.8807 43.9877 10.9965 43.7645 11.0216C43.734 11.0261 43.7039 11.0246 43.6739 11.0256C43.2611 11.0384 42.8832 10.7344 42.8295 10.3177C42.7137 9.51418 42.0098 8.90184 41.1905 8.90184H8.0737C7.16282 8.90184 6.41795 9.64719 6.41795 10.5576V30.427H42.8453V16.8244C42.8453 16.3692 43.2177 15.9967 43.6734 15.9967C44.1286 15.9967 44.501 16.3692 44.501 16.8244ZM42.8453 32.0827H6.41795V35.3947C6.41795 36.308 7.16035 37.0504 8.0737 37.0504H21.3201H27.9431H41.1895C42.1029 37.0504 42.8453 36.308 42.8453 35.3947V32.0827ZM27.1155 38.7062H22.1478V40.3619H27.115L27.1155 38.7062ZM8.90132 14.6967C9.35849 14.6967 9.72944 14.3262 9.72944 13.8686V12.2128H11.3852C11.8423 12.2128 12.2128 11.8424 12.2128 11.3852C12.2128 10.928 11.8423 10.5571 11.3852 10.5571H8.90132C8.44416 10.5571 8.0737 10.9275 8.0737 11.3852V13.8686C8.0737 14.3262 8.44465 14.6967 8.90132 14.6967ZM24.6316 11.3852C24.6316 10.928 24.2612 10.5571 23.8035 10.5571H21.3201C20.863 10.5571 20.492 10.9275 20.492 11.3852C20.492 11.8424 20.8625 12.2128 21.3201 12.2128H22.9759V13.8686C22.9759 14.3257 23.3463 14.6967 23.8035 14.6967C24.2607 14.6967 24.6316 14.3262 24.6316 13.8686V11.3852ZM21.3201 28.7712H23.8035C24.2607 28.7712 24.6316 28.4008 24.6316 27.9436V25.4597C24.6316 25.0026 24.2612 24.6316 23.8035 24.6316C23.3463 24.6316 22.9759 25.0026 22.9759 25.4597V27.1155H21.3201C20.863 27.1155 20.492 27.4859 20.492 27.9436C20.492 28.4003 20.863 28.7712 21.3201 28.7712ZM8.0737 27.9431C8.0737 28.4003 8.44416 28.7707 8.90132 28.7707H11.3852C11.8423 28.7707 12.2128 28.4003 12.2128 27.9431C12.2128 27.486 11.8423 27.115 11.3852 27.115H9.72944V25.4593C9.72944 25.0021 9.35898 24.6311 8.90132 24.6311C8.44416 24.6311 8.0737 25.0021 8.0737 25.4593V27.9431ZM39.5338 24.6316C39.5338 24.1764 39.1609 23.804 38.7057 23.804H32.9103C32.4551 23.804 32.0827 24.1764 32.0827 24.6316C32.0827 25.0868 32.4551 25.4597 32.9103 25.4597H38.7062C39.1609 25.4597 39.5338 25.0868 39.5338 24.6316ZM29.5988 25.4597C30.054 25.4597 30.427 25.0868 30.427 24.6316C30.427 24.1764 30.054 23.804 29.5988 23.804C29.1436 23.804 28.7712 24.1764 28.7712 24.6316C28.7712 25.0868 29.1436 25.4597 29.5988 25.4597ZM29.5988 22.1478H35.3942C35.8494 22.1478 36.2223 21.7748 36.2223 21.3197C36.2223 20.8645 35.8494 20.492 35.3942 20.492H29.5988C29.1436 20.492 28.7712 20.8645 28.7712 21.3197C28.7712 21.7753 29.1436 22.1478 29.5988 22.1478ZM38.7062 20.492C38.2505 20.492 37.8785 20.8645 37.8785 21.3197C37.8785 21.7748 38.251 22.1478 38.7062 22.1478C39.1614 22.1478 39.5343 21.7748 39.5343 21.3197C39.5338 20.8645 39.1609 20.492 38.7062 20.492ZM38.7062 17.1805H29.5988C29.1417 17.1805 28.7712 17.5515 28.7712 18.0087C28.7712 18.4658 29.1417 18.8368 29.5988 18.8368H38.7062C39.1633 18.8368 39.5343 18.4658 39.5343 18.0087C39.5338 17.5515 39.1633 17.1805 38.7062 17.1805ZM29.5988 28.7712H35.3942C35.8514 28.7712 36.2223 28.4008 36.2223 27.9436C36.2223 27.4864 35.8514 27.1155 35.3942 27.1155H29.5988C29.1417 27.1155 28.7712 27.4859 28.7712 27.9436C28.7712 28.4003 29.1422 28.7712 29.5988 28.7712ZM16.3524 27.1155C14.6755 27.1155 13.0872 26.5657 11.7611 25.5263C11.7591 25.5248 11.7576 25.5228 11.7551 25.5208C9.94127 24.0952 8.90132 21.9616 8.90132 19.6644C8.90132 15.5558 12.2438 12.2133 16.3524 12.2133C20.461 12.2133 23.8035 15.5558 23.8035 19.6644C23.8035 21.9611 22.7635 24.0952 20.9497 25.5208C20.9477 25.5228 20.9462 25.5248 20.9442 25.5263C19.6176 26.5657 18.0298 27.1155 16.3524 27.1155ZM10.5576 19.6644C10.5576 21.0556 11.0492 22.3704 11.9345 23.4084C11.9394 23.3996 11.9453 23.3907 11.9502 23.3823C11.964 23.3587 11.9793 23.3355 11.9931 23.3119C12.0355 23.2424 12.0793 23.1739 12.1251 23.1074C12.1448 23.0788 12.1645 23.0508 12.1852 23.0222C12.233 22.9562 12.2828 22.8926 12.3345 22.8301C12.3512 22.8094 12.3675 22.7882 12.3847 22.7675C12.4532 22.6872 12.5246 22.6099 12.5995 22.5355C12.6173 22.5172 12.6365 22.5005 12.6547 22.4828C12.7133 22.4261 12.7734 22.3709 12.835 22.3177C12.8621 22.2946 12.8892 22.2724 12.9163 22.2497C12.9769 22.201 13.038 22.1537 13.101 22.1079C13.1257 22.0901 13.1493 22.0719 13.1739 22.0547C13.2601 21.9946 13.3488 21.9374 13.4395 21.8847C13.4577 21.8739 13.4764 21.8645 13.4951 21.8542C13.57 21.8118 13.6464 21.7719 13.7237 21.734C13.7552 21.7187 13.7868 21.7044 13.8183 21.6901C13.8818 21.661 13.9464 21.634 14.0114 21.6083C13.6626 21.0615 13.4542 20.3905 13.4542 19.6639C13.4542 17.8377 14.7543 16.3524 16.3519 16.3524C17.9495 16.3524 19.2496 17.8382 19.2496 19.6639C19.2496 20.3905 19.0412 21.0615 18.6924 21.6083C18.7574 21.634 18.8215 21.661 18.8855 21.6901C18.9171 21.7044 18.9491 21.7187 18.9801 21.734C19.0575 21.7714 19.1338 21.8118 19.2087 21.8542C19.2269 21.8645 19.2461 21.8739 19.2644 21.8847C19.3555 21.9379 19.4437 21.9951 19.5304 22.0547C19.5555 22.0719 19.5792 22.0901 19.6033 22.1079C19.6664 22.1532 19.7274 22.2005 19.788 22.2493C19.8156 22.2719 19.8427 22.2941 19.8698 22.3172C19.9314 22.3704 19.9915 22.4251 20.0501 22.4818C20.0683 22.4995 20.0876 22.5163 20.1058 22.5345C20.1802 22.6089 20.2516 22.6867 20.3201 22.7665C20.3378 22.7872 20.3541 22.8084 20.3708 22.8296C20.4221 22.8921 20.4718 22.9562 20.5196 23.0217C20.5398 23.0498 20.56 23.0779 20.5797 23.1069C20.626 23.1734 20.6699 23.2424 20.7122 23.3119C20.7265 23.335 20.7413 23.3577 20.7551 23.3813C20.76 23.3907 20.7664 23.3991 20.7713 23.4079C21.6561 22.3699 22.1478 21.0546 22.1478 19.6639C22.1478 16.4682 19.5481 13.8686 16.3524 13.8686C13.1567 13.8686 10.5576 16.4687 10.5576 19.6644ZM13.2262 24.539C15.0947 25.747 17.6106 25.747 19.4796 24.539C19.4796 24.5385 19.4806 24.5385 19.4811 24.538C19.4772 24.5277 19.4713 24.5188 19.4673 24.509C19.424 24.4045 19.3762 24.303 19.32 24.2065C19.3195 24.2055 19.319 24.2045 19.3186 24.203C19.2624 24.107 19.1984 24.0168 19.1304 23.9291C19.119 23.9148 19.1082 23.9001 19.0969 23.8858C19.0304 23.804 18.9584 23.7276 18.8821 23.6552C18.8673 23.6409 18.8515 23.6271 18.8368 23.6134C18.7574 23.5419 18.6752 23.4749 18.5875 23.4143C18.5776 23.4074 18.5668 23.4015 18.5565 23.3946C18.4707 23.337 18.3816 23.2853 18.289 23.2385C18.2771 23.2326 18.2658 23.2257 18.254 23.2202C18.1579 23.1739 18.0579 23.135 17.9554 23.1015C17.9352 23.0951 17.9155 23.0882 17.8953 23.0823C17.7929 23.0513 17.6879 23.0266 17.581 23.0094C17.5628 23.0064 17.5446 23.0045 17.5264 23.002C17.413 22.9857 17.2983 22.9754 17.181 22.9754H16.3529H15.5253C15.408 22.9754 15.2932 22.9857 15.1799 23.002C15.1617 23.0045 15.1435 23.0064 15.1253 23.0094C15.0179 23.0271 14.9134 23.0518 14.811 23.0823C14.7908 23.0882 14.7711 23.0951 14.7509 23.1015C14.6489 23.135 14.5484 23.1739 14.4523 23.2202C14.44 23.2261 14.4287 23.2326 14.4169 23.2385C14.3242 23.2853 14.2351 23.337 14.1494 23.3946C14.139 23.4015 14.1287 23.4074 14.1183 23.4143C14.0311 23.4749 13.9484 23.5424 13.8695 23.6134C13.8543 23.6271 13.839 23.6409 13.8242 23.6552C13.7479 23.7272 13.6764 23.804 13.6094 23.8858C13.5976 23.9001 13.5868 23.9148 13.5759 23.9291C13.5079 24.0163 13.4439 24.107 13.3877 24.203C13.3872 24.204 13.3868 24.205 13.3863 24.2055C13.3301 24.3021 13.2818 24.4035 13.239 24.508C13.235 24.5178 13.2291 24.5267 13.2247 24.537C13.2252 24.5385 13.2257 24.5385 13.2262 24.539ZM17.5948 19.6644C17.5948 18.7668 17.0258 18.0087 16.3529 18.0087C15.68 18.0087 15.111 18.7673 15.111 19.6644C15.111 20.562 15.68 21.3201 16.3529 21.3201C17.0258 21.3201 17.5948 20.5615 17.5948 19.6644ZM38.7062 15.5248H29.5988C28.2293 15.5248 27.115 14.411 27.115 13.0414C27.115 11.6719 28.2293 10.5576 29.5988 10.5576H38.7062C40.0757 10.5576 41.19 11.6719 41.19 13.0414C41.1895 14.411 40.0757 15.5248 38.7062 15.5248ZM39.5338 13.0409C39.5338 12.5843 39.1623 12.2128 38.7057 12.2128H29.5988C29.1427 12.2128 28.7712 12.5843 28.7712 13.0409C28.7712 13.4971 29.1427 13.8686 29.5988 13.8686H38.7062C39.1623 13.8691 39.5338 13.4976 39.5338 13.0409Z" fill="white"/>
</svg>
